<svg width="64" height="64" viewBox="0 0 64 64" fill="none" xmlns="http://www.w3.org/2000/svg">
  <circle cx="32" cy="32" r="30" fill="#8B7355"/>
  <path d="M32 12C36.4183 12 40 15.5817 40 20C40 24.4183 36.4183 28 32 28C27.5817 28 24 24.4183 24 20C24 15.5817 27.5817 12 32 12ZM32 14C28.6863 14 26 16.6863 26 20C26 23.3137 28.6863 26 32 26C35.3137 26 38 23.3137 38 20C38 16.6863 35.3137 14 32 14Z" fill="#FDF6F0"/>
  <path d="M42 42C42 48 38 52 32 52C26 52 22 48 22 42C22 36 26 32 32 32C38 32 42 36 42 42ZM40 42C40 37.5817 36.4183 34 32 34C27.5817 34 24 37.5817 24 42C24 46.4183 27.5817 50 32 50C36.4183 50 40 46.4183 40 42Z" fill="#FDF6F0"/>
  <path d="M12 32C12 20.9543 20.9543 12 32 12V14C22.0589 14 14 22.0589 14 32H12ZM32 52C20.9543 52 12 43.0457 12 32H14C14 41.9411 22.0589 50 32 50V52Z" fill="#FDF6F0" opacity="0.6"/>
</svg>
